<?xml version="1.0" encoding="UTF-8" standalone="no"?>
<!DOCTYPE svg PUBLIC "-//W3C//DTD SVG 1.1//EN"
 "http://www.w3.org/Graphics/SVG/1.1/DTD/svg11.dtd">
<!-- Generated by graphviz version 2.40.1 (20161225.0304)
 -->
<!-- Title: InterestingRegionComputationGraph Pages: 1 -->
<svg width="560pt" height="1230pt"
 viewBox="0.00 0.00 559.65 1229.88" xmlns="http://www.w3.org/2000/svg" xmlns:xlink="http://www.w3.org/1999/xlink">
<g id="graph0" class="graph" transform="scale(1 1) rotate(0) translate(4 1225.8828)">
<title>InterestingRegionComputationGraph</title>
<polygon fill="#ffffff" stroke="transparent" points="-4,4 -4,-1225.8828 555.6459,-1225.8828 555.6459,4 -4,4"/>
<!-- grid0 -->
<g id="node1" class="node">
<title>grid0</title>
<polygon fill="none" stroke="#000000" points="287.5633,-1170.9937 237.121,-1170.9937 237.121,-1120.5513 287.5633,-1120.5513 287.5633,-1170.9937"/>
<text text-anchor="middle" x="262.3421" y="-1141.5725" font-family="Times,serif" font-size="14.00" fill="#000000">GRID</text>
</g>
<!-- l0 -->
<g id="node17" class="node">
<title>l0</title>
<text text-anchor="start" x="76.2904" y="-1049.4621" font-family="Times,serif" font-size="14.00" fill="#000000">lview</text>
<text text-anchor="start" x="107.3939" y="-1049.4621" font-family="Times,serif" baseline-shift="sub" font-size="14.00" fill="#000000">0</text>
</g>
<!-- grid0&#45;&gt;l0 -->
<g id="edge4" class="edge">
<title>grid0&#45;&gt;l0</title>
<path fill="none" stroke="#000000" d="M237.1661,-1132.9025C209.0743,-1118.3732 162.4327,-1093.7435 123.3421,-1070.6621 120.4062,-1068.9285 117.3363,-1067.038 114.3501,-1065.1548"/>
<polygon fill="#000000" stroke="#000000" points="116.1639,-1062.16 105.8605,-1059.6921 112.3761,-1068.0466 116.1639,-1062.16"/>
<text text-anchor="middle" x="201.494" y="-1091.4621" font-family="Times,serif" font-size="14.00" fill="#000000">features</text>
</g>
<!-- lstm0 -->
<g id="node2" class="node">
<title>lstm0</title>
<polygon fill="none" stroke="#000000" points="182.1811,-997.8321 128.5032,-997.8321 128.5032,-944.1542 182.1811,-944.1542 182.1811,-997.8321"/>
<text text-anchor="middle" x="155.3421" y="-966.7932" font-family="Times,serif" font-size="14.00" fill="#000000">LSTM</text>
</g>
<!-- h1p -->
<g id="node21" class="node">
<title>h1p</title>
<text text-anchor="start" x="130.5292" y="-873.1242" font-family="Times,serif" font-size="14.00" fill="#000000">hidden</text>
<text text-anchor="start" x="168.6327" y="-873.1242" font-family="Times,serif" baseline-shift="sub" font-size="14.00" fill="#000000">1</text>
<text text-anchor="start" x="175.6327" y="-873.1242" font-family="Times,serif" baseline-shift="super" font-size="14.00" fill="#000000">&#39;</text>
</g>
<!-- lstm0&#45;&gt;h1p -->
<g id="edge8" class="edge">
<title>lstm0&#45;&gt;h1p</title>
<path fill="none" stroke="#000000" d="M155.0583,-944.1181C154.8868,-927.8895 154.6734,-907.6879 154.5244,-893.5768"/>
<polygon fill="#000000" stroke="#000000" points="158.0222,-893.3393 154.4166,-883.3769 151.0226,-893.4134 158.0222,-893.3393"/>
</g>
<!-- affregr0 -->
<g id="node3" class="node">
<title>affregr0</title>
<polygon fill="none" stroke="#000000" points="197.8882,-819.9289 110.796,-819.9289 110.796,-732.8367 197.8882,-732.8367 197.8882,-819.9289"/>
<text text-anchor="middle" x="154.3421" y="-772.1828" font-family="Times,serif" font-size="14.00" fill="#000000">AFFINEregr</text>
</g>
<!-- o1 -->
<g id="node16" class="node">
<title>o1</title>
<text text-anchor="start" x="110.0272" y="-660.2414" font-family="Times,serif" font-size="14.00" fill="#000000">offset</text>
<text text-anchor="start" x="141.6571" y="-660.2414" font-family="Times,serif" baseline-shift="sub" font-size="14.00" fill="#000000">1</text>
</g>
<!-- affregr0&#45;&gt;o1 -->
<g id="edge11" class="edge">
<title>affregr0&#45;&gt;o1</title>
<path fill="none" stroke="#000000" d="M144.6765,-732.7167C140.6403,-714.4826 136.1879,-694.3683 133.1255,-680.5333"/>
<polygon fill="#000000" stroke="#000000" points="136.4982,-679.5751 130.9196,-670.5679 129.6636,-681.0881 136.4982,-679.5751"/>
</g>
<!-- affdesc0 -->
<g id="node4" class="node">
<title>affdesc0</title>
<polygon fill="none" stroke="#000000" points="399.225,-821.2657 309.4593,-821.2657 309.4593,-731.4999 399.225,-731.4999 399.225,-821.2657"/>
<text text-anchor="middle" x="354.3421" y="-772.1828" font-family="Times,serif" font-size="14.00" fill="#000000">AFFINEdesc</text>
</g>
<!-- d1 -->
<g id="node24" class="node">
<title>d1</title>
<text text-anchor="start" x="359.1283" y="-660.2414" font-family="Times,serif" font-size="14.00" fill="#000000">descri</text>
<text text-anchor="start" x="392.556" y="-660.2414" font-family="Times,serif" baseline-shift="sub" font-size="14.00" fill="#000000">1</text>
</g>
<!-- affdesc0&#45;&gt;d1 -->
<g id="edge14" class="edge">
<title>affdesc0&#45;&gt;d1</title>
<path fill="none" stroke="#000000" d="M364.317,-731.221C366.6242,-720.7845 369.0706,-709.7259 371.349,-699.4414 372.6991,-693.347 374.1802,-686.6729 375.4968,-680.7447"/>
<polygon fill="#000000" stroke="#000000" points="378.9956,-681.1339 377.7478,-670.6128 372.1622,-679.6157 378.9956,-681.1339"/>
<text text-anchor="middle" x="392.3387" y="-702.2414" font-family="Times,serif" font-size="14.00" fill="#000000">gumbel</text>
</g>
<!-- grid1 -->
<g id="node5" class="node">
<title>grid1</title>
<polygon fill="none" stroke="#000000" points="242.5633,-608.5522 192.121,-608.5522 192.121,-558.1099 242.5633,-558.1099 242.5633,-608.5522"/>
<text text-anchor="middle" x="217.3421" y="-579.1311" font-family="Times,serif" font-size="14.00" fill="#000000">GRID</text>
</g>
<!-- l1 -->
<g id="node18" class="node">
<title>l1</title>
<text text-anchor="start" x="193.2904" y="-483.0207" font-family="Times,serif" font-size="14.00" fill="#000000">lview</text>
<text text-anchor="start" x="224.3939" y="-483.0207" font-family="Times,serif" baseline-shift="sub" font-size="14.00" fill="#000000">1</text>
</g>
<!-- grid1&#45;&gt;l1 -->
<g id="edge23" class="edge">
<title>grid1&#45;&gt;l1</title>
<path fill="none" stroke="#000000" d="M216.0415,-558.07C215.1561,-540.8734 214.0076,-518.568 213.2268,-503.403"/>
<polygon fill="#000000" stroke="#000000" points="216.7215,-503.2077 212.7118,-493.4009 209.7308,-503.5677 216.7215,-503.2077"/>
<text text-anchor="middle" x="236.494" y="-529.0207" font-family="Times,serif" font-size="14.00" fill="#000000">features</text>
</g>
<!-- lstm1 -->
<g id="node6" class="node">
<title>lstm1</title>
<polygon fill="none" stroke="#000000" points="191.1811,-427.3907 137.5032,-427.3907 137.5032,-373.7128 191.1811,-373.7128 191.1811,-427.3907"/>
<text text-anchor="middle" x="164.3421" y="-396.3518" font-family="Times,serif" font-size="14.00" fill="#000000">LSTM</text>
</g>
<!-- h2p -->
<g id="node22" class="node">
<title>h2p</title>
<text text-anchor="start" x="140.5292" y="-326.6828" font-family="Times,serif" font-size="14.00" fill="#000000">hidden</text>
<text text-anchor="start" x="178.6327" y="-326.6828" font-family="Times,serif" baseline-shift="sub" font-size="14.00" fill="#000000">2</text>
<text text-anchor="start" x="185.6327" y="-326.6828" font-family="Times,serif" baseline-shift="super" font-size="14.00" fill="#000000">&#39;</text>
</g>
<!-- lstm1&#45;&gt;h2p -->
<g id="edge27" class="edge">
<title>lstm1&#45;&gt;h2p</title>
<path fill="none" stroke="#000000" d="M164.3421,-373.8349C164.3421,-364.9061 164.3421,-355.1954 164.3421,-347.178"/>
<polygon fill="#000000" stroke="#000000" points="167.8422,-346.9314 164.3421,-336.9314 160.8422,-346.9315 167.8422,-346.9314"/>
</g>
<!-- affregr1 -->
<g id="node7" class="node">
<title>affregr1</title>
<polygon fill="none" stroke="#000000" points="202.8882,-284.4875 115.796,-284.4875 115.796,-197.3953 202.8882,-197.3953 202.8882,-284.4875"/>
<text text-anchor="middle" x="159.3421" y="-236.7414" font-family="Times,serif" font-size="14.00" fill="#000000">AFFINEregr</text>
</g>
<!-- o2 -->
<g id="node23" class="node">
<title>o2</title>
<text text-anchor="start" x="140.0272" y="-135.8" font-family="Times,serif" font-size="14.00" fill="#000000">offset</text>
<text text-anchor="start" x="171.6571" y="-135.8" font-family="Times,serif" baseline-shift="sub" font-size="14.00" fill="#000000">2</text>
</g>
<!-- affregr1&#45;&gt;o2 -->
<g id="edge30" class="edge">
<title>affregr1&#45;&gt;o2</title>
<path fill="none" stroke="#000000" d="M159.3421,-197.1175C159.3421,-182.6989 159.3421,-167.502 159.3421,-156.2657"/>
<polygon fill="#000000" stroke="#000000" points="162.8422,-156.1886 159.3421,-146.1886 155.8422,-156.1887 162.8422,-156.1886"/>
</g>
<!-- affdesc1 -->
<g id="node8" class="node">
<title>affdesc1</title>
<polygon fill="none" stroke="#000000" points="409.225,-285.8243 319.4593,-285.8243 319.4593,-196.0585 409.225,-196.0585 409.225,-285.8243"/>
<text text-anchor="middle" x="364.3421" y="-236.7414" font-family="Times,serif" font-size="14.00" fill="#000000">AFFINEdesc</text>
</g>
<!-- d2 -->
<g id="node25" class="node">
<title>d2</title>
<text text-anchor="start" x="331.1283" y="-135.8" font-family="Times,serif" font-size="14.00" fill="#000000">descri</text>
<text text-anchor="start" x="364.556" y="-135.8" font-family="Times,serif" baseline-shift="sub" font-size="14.00" fill="#000000">2</text>
</g>
<!-- affdesc1&#45;&gt;d2 -->
<g id="edge33" class="edge">
<title>affdesc1&#45;&gt;d2</title>
<path fill="none" stroke="#000000" d="M358.6023,-195.9317C356.8241,-181.9873 354.9689,-167.4395 353.579,-156.5403"/>
<polygon fill="#000000" stroke="#000000" points="357.016,-155.8236 352.279,-146.3467 350.0722,-156.7092 357.016,-155.8236"/>
<text text-anchor="middle" x="376.3387" y="-166.8" font-family="Times,serif" font-size="14.00" fill="#000000">gumbel</text>
</g>
<!-- f -->
<g id="node9" class="node">
<title>f</title>
<text text-anchor="middle" x="353.3421" y="-1210.6828" font-family="Times,serif" font-size="14.00" fill="#000000">frame</text>
</g>
<!-- f&#45;&gt;grid0 -->
<g id="edge2" class="edge">
<title>f&#45;&gt;grid0</title>
<path fill="none" stroke="#000000" d="M343.9463,-1207.7471C332.6291,-1199.1522 312.9947,-1184.2408 295.8215,-1171.1985"/>
<polygon fill="#000000" stroke="#000000" points="297.7165,-1168.2428 287.6359,-1164.9819 293.4828,-1173.8174 297.7165,-1168.2428"/>
</g>
<!-- f&#45;&gt;grid1 -->
<g id="edge21" class="edge">
<title>f&#45;&gt;grid1</title>
<path fill="none" stroke="#000000" d="M353.3421,-1207.6193C353.3421,-1195.0275 353.3421,-1168.3293 353.3421,-1145.7725 353.3421,-1145.7725 353.3421,-1145.7725 353.3421,-1016.1621 353.3421,-858.126 272.8919,-834.4487 233.3421,-681.4414 228.0217,-660.8581 224.1168,-637.3663 221.4971,-618.5314"/>
<polygon fill="#000000" stroke="#000000" points="224.9633,-618.0447 220.1731,-608.5946 218.0246,-618.9693 224.9633,-618.0447"/>
</g>
<!-- g -->
<g id="node10" class="node">
<title>g</title>
<text text-anchor="middle" x="510.3421" y="-579.1311" font-family="Times,serif" font-size="14.00" fill="#000000">gview</text>
</g>
<!-- f&#45;&gt;g -->
<g id="edge1" class="edge">
<title>f&#45;&gt;g</title>
<path fill="none" stroke="#000000" d="M369.5318,-1211.2554C409.0707,-1201.9295 507.3421,-1175.7368 507.3421,-1145.7725 507.3421,-1145.7725 507.3421,-1145.7725 507.3421,-663.4414 507.3421,-641.7144 508.4577,-616.696 509.3283,-600.4798"/>
<polygon fill="#000000" stroke="#000000" points="512.828,-600.5825 509.8995,-590.4005 505.8392,-600.1864 512.828,-600.5825"/>
<text text-anchor="middle" x="529.494" y="-915.1242" font-family="Times,serif" font-size="14.00" fill="#000000">features</text>
</g>
<!-- lo1 -->
<g id="node28" class="node">
<title>lo1</title>
<polygon fill="#00ffff" stroke="#000000" points="380.3421,-508.2207 323.6807,-475.2207 437.0036,-475.2207 380.3421,-508.2207"/>
<text text-anchor="middle" x="380.3421" y="-482.0207" font-family="Times,serif" font-size="14.00" fill="#000000">loss1</text>
</g>
<!-- g&#45;&gt;lo1 -->
<g id="edge17" class="edge">
<title>g&#45;&gt;lo1</title>
<path fill="none" stroke="#000000" d="M500.571,-576.032C480.5572,-561.0816 434.3536,-526.5674 405.4054,-504.943"/>
<polygon fill="#000000" stroke="#000000" points="407.1297,-501.8624 397.0236,-498.6818 402.9405,-507.4705 407.1297,-501.8624"/>
</g>
<!-- lo2 -->
<g id="node29" class="node">
<title>lo2</title>
<polygon fill="#00ffff" stroke="#000000" points="315.3421,-44 258.6807,-11 372.0036,-11 315.3421,-44"/>
<text text-anchor="middle" x="315.3421" y="-17.8" font-family="Times,serif" font-size="14.00" fill="#000000">loss2</text>
</g>
<!-- g&#45;&gt;lo2 -->
<g id="edge36" class="edge">
<title>g&#45;&gt;lo2</title>
<path fill="none" stroke="#000000" d="M509.8517,-576.268C508.7835,-560.2567 506.3421,-519.9682 506.3421,-486.2207 506.3421,-486.2207 506.3421,-486.2207 506.3421,-88 506.3421,-56.5409 412.6081,-36.7686 356.4686,-27.7477"/>
<polygon fill="#000000" stroke="#000000" points="356.8742,-24.2688 346.4547,-26.1881 355.7969,-31.1854 356.8742,-24.2688"/>
</g>
<!-- k -->
<g id="node11" class="node">
<title>k</title>
<ellipse fill="#ffff00" stroke="#000000" cx="291.3421" cy="-663.4414" rx="49.286" ry="18"/>
<text text-anchor="middle" x="291.3421" y="-659.2414" font-family="Times,serif" font-size="14.00" fill="#000000">kernelbank</text>
</g>
<!-- s1 -->
<g id="node26" class="node">
<title>s1</title>
<text text-anchor="start" x="366.1214" y="-580.1311" font-family="Times,serif" font-size="14.00" fill="#000000">sali</text>
<text text-anchor="start" x="385.5628" y="-580.1311" font-family="Times,serif" baseline-shift="sub" font-size="14.00" fill="#000000">1</text>
</g>
<!-- k&#45;&gt;s1 -->
<g id="edge15" class="edge">
<title>k&#45;&gt;s1</title>
<path fill="none" stroke="#000000" d="M310.0047,-646.4521C326.0107,-631.8811 348.8025,-611.1326 363.8255,-597.4566"/>
<polygon fill="#000000" stroke="#000000" points="366.2412,-599.9905 371.2799,-590.6705 361.5289,-594.8142 366.2412,-599.9905"/>
</g>
<!-- s2 -->
<g id="node27" class="node">
<title>s2</title>
<text text-anchor="start" x="302.1214" y="-84.8" font-family="Times,serif" font-size="14.00" fill="#000000">sali</text>
<text text-anchor="start" x="321.5628" y="-84.8" font-family="Times,serif" baseline-shift="sub" font-size="14.00" fill="#000000">2</text>
</g>
<!-- k&#45;&gt;s2 -->
<g id="edge34" class="edge">
<title>k&#45;&gt;s2</title>
<path fill="none" stroke="#000000" d="M291.3421,-645.306C291.3421,-629.0691 291.3421,-604.6104 291.3421,-583.3311 291.3421,-583.3311 291.3421,-583.3311 291.3421,-139 291.3421,-126.2298 297.5788,-113.2263 303.6937,-103.5459"/>
<polygon fill="#000000" stroke="#000000" points="306.7221,-105.3201 309.5324,-95.1048 300.9651,-101.338 306.7221,-105.3201"/>
</g>
<!-- tlstm -->
<g id="node12" class="node">
<title>tlstm</title>
<ellipse fill="#ffff00" stroke="#000000" cx="226.3421" cy="-1052.6621" rx="30.0207" ry="18"/>
<text text-anchor="start" x="210.3905" y="-1049.4621" font-family="Times,serif" font-size="14.00" fill="#000000">θ</text>
<text text-anchor="start" x="218.1766" y="-1049.4621" font-family="Times,serif" baseline-shift="sub" font-size="14.00" fill="#000000">lstm</text>
</g>
<!-- tlstm&#45;&gt;lstm0 -->
<g id="edge5" class="edge">
<title>tlstm&#45;&gt;lstm0</title>
<path fill="none" stroke="#000000" d="M212.3148,-1036.527C204.5751,-1027.6242 194.6541,-1016.2124 185.2666,-1005.4142"/>
<polygon fill="#000000" stroke="#000000" points="187.7664,-1002.9551 178.5641,-997.7046 182.4837,-1007.5478 187.7664,-1002.9551"/>
</g>
<!-- tlstm&#45;&gt;lstm1 -->
<g id="edge24" class="edge">
<title>tlstm&#45;&gt;lstm1</title>
<path fill="none" stroke="#000000" d="M226.3421,-1034.4974C226.3421,-1017.9472 226.3421,-992.8283 226.3421,-970.9932 226.3421,-970.9932 226.3421,-970.9932 226.3421,-839.8242 226.3421,-735.2267 198.137,-711.9873 183.3421,-608.4414 174.8301,-548.8675 169.3668,-479.1149 166.5784,-437.4507"/>
<polygon fill="#000000" stroke="#000000" points="170.0554,-436.9845 165.9107,-427.234 163.0703,-437.441 170.0554,-436.9845"/>
</g>
<!-- taffregr -->
<g id="node13" class="node">
<title>taffregr</title>
<ellipse fill="#ffff00" stroke="#000000" cx="52.3421" cy="-876.3242" rx="52.1848" ry="18"/>
<text text-anchor="start" x="18.911" y="-873.1242" font-family="Times,serif" font-size="14.00" fill="#000000">θ</text>
<text text-anchor="start" x="26.6971" y="-873.1242" font-family="Times,serif" baseline-shift="sub" font-size="14.00" fill="#000000">affine&#45;regr</text>
</g>
<!-- taffregr&#45;&gt;affregr0 -->
<g id="edge9" class="edge">
<title>taffregr&#45;&gt;affregr0</title>
<path fill="none" stroke="#000000" d="M70.1092,-858.9158C79.3736,-849.8383 91.2294,-838.2218 103.1026,-826.5883"/>
<polygon fill="#000000" stroke="#000000" points="105.7812,-828.8637 110.4745,-819.3651 100.8822,-823.8638 105.7812,-828.8637"/>
</g>
<!-- taffregr&#45;&gt;affregr1 -->
<g id="edge28" class="edge">
<title>taffregr&#45;&gt;affregr1</title>
<path fill="none" stroke="#000000" d="M50.0282,-858.3043C47.6655,-838.3191 44.3421,-805.1034 44.3421,-776.3828 44.3421,-776.3828 44.3421,-776.3828 44.3421,-355.3828 44.3421,-317.3132 76.3977,-287.5424 106.6605,-267.9191"/>
<polygon fill="#000000" stroke="#000000" points="108.8888,-270.6554 115.5375,-262.4064 105.1959,-264.7087 108.8888,-270.6554"/>
</g>
<!-- taffdesc -->
<g id="node14" class="node">
<title>taffdesc</title>
<ellipse fill="#ffff00" stroke="#000000" cx="422.3421" cy="-876.3242" rx="53.6385" ry="18"/>
<text text-anchor="start" x="387.742" y="-873.1242" font-family="Times,serif" font-size="14.00" fill="#000000">θ</text>
<text text-anchor="start" x="395.5282" y="-873.1242" font-family="Times,serif" baseline-shift="sub" font-size="14.00" fill="#000000">affine&#45;desc</text>
</g>
<!-- taffdesc&#45;&gt;affdesc0 -->
<g id="edge12" class="edge">
<title>taffdesc&#45;&gt;affdesc0</title>
<path fill="none" stroke="#000000" d="M410.1851,-858.4567C404.6387,-850.305 397.7475,-840.1768 390.7201,-829.8485"/>
<polygon fill="#000000" stroke="#000000" points="393.5973,-827.8553 385.0782,-821.5564 387.8099,-831.793 393.5973,-827.8553"/>
</g>
<!-- taffdesc&#45;&gt;affdesc1 -->
<g id="edge31" class="edge">
<title>taffdesc&#45;&gt;affdesc1</title>
<path fill="none" stroke="#000000" d="M435.2436,-858.5284C447.9095,-839.27 465.3421,-807.1715 465.3421,-776.3828 465.3421,-776.3828 465.3421,-776.3828 465.3421,-329.8828 465.3421,-301.2705 442.2302,-279.6797 418.1181,-264.9403"/>
<polygon fill="#000000" stroke="#000000" points="419.6424,-261.7792 409.2304,-259.8196 416.1479,-267.8445 419.6424,-261.7792"/>
</g>
<!-- o0 -->
<g id="node15" class="node">
<title>o0</title>
<text text-anchor="start" x="270.0272" y="-1211.6828" font-family="Times,serif" font-size="14.00" fill="#000000">offset</text>
<text text-anchor="start" x="301.6571" y="-1211.6828" font-family="Times,serif" baseline-shift="sub" font-size="14.00" fill="#000000">0</text>
</g>
<!-- o0&#45;&gt;grid0 -->
<g id="edge3" class="edge">
<title>o0&#45;&gt;grid0</title>
<path fill="none" stroke="#000000" d="M286.5544,-1207.7471C283.9754,-1201.146 279.9409,-1190.819 275.8995,-1180.4745"/>
<polygon fill="#000000" stroke="#000000" points="279.1267,-1179.1167 272.2277,-1171.0759 272.6066,-1181.664 279.1267,-1179.1167"/>
</g>
<!-- o0&#45;&gt;lo1 -->
<g id="edge18" class="edge">
<title>o0&#45;&gt;lo1</title>
<path fill="none" stroke="#000000" d="M290.5874,-1207.7822C299.1746,-1158.9214 349.5571,-873.9682 359.3421,-858.3242 373.8133,-835.1882 395.6155,-845.4639 408.3421,-821.3242 433.6264,-773.3654 415.6394,-753.6084 413.3421,-699.4414 410.0584,-622.0126 414.7299,-600.7094 393.3421,-526.2207 392.2401,-522.3825 391.0156,-518.3588 389.7714,-514.4039"/>
<polygon fill="#000000" stroke="#000000" points="393.0944,-513.3045 386.696,-504.8599 386.4317,-515.4515 393.0944,-513.3045"/>
</g>
<!-- o1&#45;&gt;grid1 -->
<g id="edge22" class="edge">
<title>o1&#45;&gt;grid1</title>
<path fill="none" stroke="#000000" d="M137.1516,-656.3321C147.7301,-646.7021 167.2633,-628.9201 184.4023,-613.3176"/>
<polygon fill="#000000" stroke="#000000" points="187.0291,-615.6595 192.0678,-606.3394 182.3168,-610.4831 187.0291,-615.6595"/>
</g>
<!-- o1&#45;&gt;lo2 -->
<g id="edge37" class="edge">
<title>o1&#45;&gt;lo2</title>
<path fill="none" stroke="#000000" d="M127.6694,-656.1109C119.2968,-619.1765 82.3421,-453.1752 82.3421,-400.5518 82.3421,-400.5518 82.3421,-400.5518 82.3421,-88 82.3421,-49.1895 203.5269,-32.031 271.1034,-25.48"/>
<polygon fill="#000000" stroke="#000000" points="271.8285,-28.9278 281.4619,-24.5179 271.1811,-21.9578 271.8285,-28.9278"/>
</g>
<!-- l0&#45;&gt;lstm0 -->
<g id="edge6" class="edge">
<title>l0&#45;&gt;lstm0</title>
<path fill="none" stroke="#000000" d="M100.6667,-1045.4145C107.1879,-1036.5383 118.7,-1020.8686 129.4841,-1006.1898"/>
<polygon fill="#000000" stroke="#000000" points="132.6062,-1007.8517 135.7063,-997.7205 126.965,-1003.7072 132.6062,-1007.8517"/>
</g>
<!-- l1&#45;&gt;lstm1 -->
<g id="edge25" class="edge">
<title>l1&#45;&gt;lstm1</title>
<path fill="none" stroke="#000000" d="M208.4141,-479.2101C203.1244,-469.7692 193.3328,-452.2934 184.3201,-436.2078"/>
<polygon fill="#000000" stroke="#000000" points="187.3682,-434.4874 179.4267,-427.4743 181.2614,-437.9091 187.3682,-434.4874"/>
</g>
<!-- h0 -->
<g id="node19" class="node">
<title>h0</title>
<text text-anchor="start" x="132.7904" y="-1049.4621" font-family="Times,serif" font-size="14.00" fill="#000000">hidden</text>
<text text-anchor="start" x="170.8939" y="-1049.4621" font-family="Times,serif" baseline-shift="sub" font-size="14.00" fill="#000000">0</text>
</g>
<!-- h0&#45;&gt;lstm0 -->
<g id="edge7" class="edge">
<title>h0&#45;&gt;lstm0</title>
<path fill="none" stroke="#000000" d="M155.3421,-1045.4145C155.3421,-1036.8701 155.3421,-1022.0306 155.3421,-1007.8398"/>
<polygon fill="#000000" stroke="#000000" points="158.8422,-1007.7205 155.3421,-997.7205 151.8422,-1007.7205 158.8422,-1007.7205"/>
</g>
<!-- h1 -->
<g id="node20" class="node">
<title>h1</title>
<text text-anchor="start" x="59.7904" y="-703.2414" font-family="Times,serif" font-size="14.00" fill="#000000">hidden</text>
<text text-anchor="start" x="97.8939" y="-703.2414" font-family="Times,serif" baseline-shift="sub" font-size="14.00" fill="#000000">1</text>
</g>
<!-- h1&#45;&gt;lstm1 -->
<g id="edge26" class="edge">
<title>h1&#45;&gt;lstm1</title>
<path fill="none" stroke="#000000" d="M83.0126,-699.2437C85.1321,-677.6168 92.3874,-611.4243 106.3421,-558.2207 117.5412,-515.5234 135.7699,-468.2047 148.8025,-436.6516"/>
<polygon fill="#000000" stroke="#000000" points="152.047,-437.9647 152.6667,-427.388 145.5865,-435.2697 152.047,-437.9647"/>
</g>
<!-- h1p&#45;&gt;affregr0 -->
<g id="edge10" class="edge">
<title>h1p&#45;&gt;affregr0</title>
<path fill="none" stroke="#000000" d="M154.3421,-869.1367C154.3421,-860.6188 154.3421,-845.618 154.3421,-830.1305"/>
<polygon fill="#000000" stroke="#000000" points="157.8422,-829.946 154.3421,-819.946 150.8422,-829.946 157.8422,-829.946"/>
</g>
<!-- h1p&#45;&gt;affdesc0 -->
<g id="edge13" class="edge">
<title>h1p&#45;&gt;affdesc0</title>
<path fill="none" stroke="#000000" d="M168.4058,-869.2965C195.3573,-855.8287 255.5665,-825.7417 300.2082,-803.4339"/>
<polygon fill="#000000" stroke="#000000" points="301.8164,-806.543 309.1972,-798.9421 298.6873,-800.2813 301.8164,-806.543"/>
</g>
<!-- h1p&#45;&gt;h1 -->
<g id="edge20" class="edge">
<title>h1p&#45;&gt;h1</title>
<path fill="none" stroke="#000000" stroke-dasharray="1,5" d="M144.2741,-869.0289C131.9843,-859.528 111.5778,-841.7066 101.3421,-821.3242 85.3543,-789.4874 82.3744,-747.0426 82.0698,-723.6812"/>
<polygon fill="#000000" stroke="#000000" points="85.5698,-723.6265 82.0946,-713.6178 78.5698,-723.6091 85.5698,-723.6265"/>
</g>
<!-- h2p&#45;&gt;affregr1 -->
<g id="edge29" class="edge">
<title>h2p&#45;&gt;affregr1</title>
<path fill="none" stroke="#000000" d="M163.933,-322.6044C163.5687,-316.1245 162.9995,-305.9986 162.3842,-295.0543"/>
<polygon fill="#000000" stroke="#000000" points="165.8666,-294.6421 161.8108,-284.8543 158.8777,-295.0351 165.8666,-294.6421"/>
</g>
<!-- h2p&#45;&gt;affdesc1 -->
<g id="edge32" class="edge">
<title>h2p&#45;&gt;affdesc1</title>
<path fill="none" stroke="#000000" d="M180.3709,-322.7547C208.0916,-310.4271 266.1942,-284.5885 309.7294,-265.2281"/>
<polygon fill="#000000" stroke="#000000" points="311.3446,-268.3403 319.0596,-261.0789 308.5002,-261.9443 311.3446,-268.3403"/>
</g>
<!-- d1&#45;&gt;s1 -->
<g id="edge16" class="edge">
<title>d1&#45;&gt;s1</title>
<path fill="none" stroke="#000000" d="M379.3421,-656.3321C379.3421,-644.0114 379.3421,-618.347 379.3421,-600.9753"/>
<polygon fill="#000000" stroke="#000000" points="382.8422,-600.5395 379.3421,-590.5395 375.8422,-600.5396 382.8422,-600.5395"/>
</g>
<!-- d2&#45;&gt;s2 -->
<g id="edge35" class="edge">
<title>d2&#45;&gt;s2</title>
<path fill="none" stroke="#000000" d="M346.3365,-131.9087C341.1243,-124.5248 332.7996,-112.7314 326.0896,-103.2255"/>
<polygon fill="#000000" stroke="#000000" points="328.9315,-101.1824 320.3053,-95.0311 323.2128,-105.2192 328.9315,-101.1824"/>
</g>
<!-- s1&#45;&gt;lo1 -->
<g id="edge19" class="edge">
<title>s1&#45;&gt;lo1</title>
<path fill="none" stroke="#000000" d="M379.4173,-576.032C379.5419,-563.937 379.7983,-539.0376 380.0096,-518.5178"/>
<polygon fill="#000000" stroke="#000000" points="383.5118,-518.313 380.115,-508.2774 376.5121,-518.2408 383.5118,-518.313"/>
</g>
<!-- s2&#45;&gt;lo2 -->
<g id="edge38" class="edge">
<title>s2&#45;&gt;lo2</title>
<path fill="none" stroke="#000000" d="M315.3421,-80.9368C315.3421,-74.4704 315.3421,-64.4147 315.3421,-54.4287"/>
<polygon fill="#000000" stroke="#000000" points="318.8422,-54.2008 315.3421,-44.2009 311.8422,-54.2009 318.8422,-54.2008"/>
</g>
</g>
</svg>
